<svg xmlns="http://www.w3.org/2000/svg" width="246" height="211.48" viewBox="0 0 246 211.48"><g id="Layer_2" data-name="Layer 2"><g id="Layer_1-2" data-name="Layer 1"><path d="M239.31,105.74l6.06-14.27A8,8,0,0,0,238,80.35H225.66a105.76,105.76,0,0,0-205.32,0H8A8,8,0,0,0,.64,91.47l6.05,14.27L.64,120A8,8,0,0,0,8,131.13H20.34a105.76,105.76,0,0,0,205.32,0H238A8,8,0,0,0,245.37,120Z" fill="#649898"/><circle cx="123" cy="105.74" r="92.73" fill="#2c7b80" stroke="#fff" stroke-miterlimit="10" stroke-width="4"/><path d="M178.14,127.34a59.59,59.59,0,0,1-110.28,0H39.16a86.84,86.84,0,0,0,167.68,0Z" fill="#578f8f"/><path d="M103.15,73.13a4.12,4.12,0,0,0-2.68-.69H96.22V39.76a4,4,0,0,0-.68-2.39,2.48,2.48,0,0,0-2.13-1,4.1,4.1,0,0,0-2.86,1.53L89.61,39c-.79.92-1.57,1.78-2.33,2.56h0c-.53.42-1.06.81-1.58,1.16-1.47,1.1-2.22,2.23-2.22,3.36a2.51,2.51,0,0,0,.57,1.67,2.19,2.19,0,0,0,1.77.69c1.11,0,2.31-.81,3.68-2.47.14-.16.26-.33.38-.49s.27-.35.4-.5l.72-.65V72.44H85.1a3.68,3.68,0,0,0-2.25.64A2,2,0,0,0,82,74.77a2.07,2.07,0,0,0,.73,1.65,3,3,0,0,0,2,.61h2.25l1.34,0,1,0,1.91,0,1.22,0h2l1,0h.08l1.41,0,1,0L99,77H101a3.24,3.24,0,0,0,2.28-.68,2.16,2.16,0,0,0,.71-1.6A2.08,2.08,0,0,0,103.15,73.13Z" fill="#e6cd69"/><path d="M161.14,51.47h2.23v8.2A8.52,8.52,0,0,1,156.08,68v8.64h-2.23V68a8.28,8.28,0,0,1-7.19-8.41V51.47h2.23v8.16a6.13,6.13,0,1,0,12.25,0Z" fill="#fff"/><path d="M108.82,51.44h6a12.4,12.4,0,0,1,8.92,3.73,12.54,12.54,0,0,1,3.73,9,12.68,12.68,0,0,1-12.65,12.61h-6Zm6,2.23h-3.79V74.5h3.79a10.42,10.42,0,1,0,0-20.83Z" fill="#fff"/><path d="M139.41,51.52v-.05h-2.65l-9.08,25.26h2.38l2.52-7a8.72,8.72,0,0,1,1.49-.81,9.89,9.89,0,0,1,4-.84,10,10,0,0,1,4,.82,10.36,10.36,0,0,1,1.49.81l2.54,7,0,.06h2.38Zm2.92,14.82c-.4-.14-.81-.27-1.21-.37a12.24,12.24,0,0,0-6.1,0,11.34,11.34,0,0,0-1.25.4l.77-2.1,3.53-9.79,3.53,9.79Z" fill="#fff"/><path d="M168.51,51.29a2.24,2.24,0,0,1,.93.19,2.31,2.31,0,0,1,.76.51,2.54,2.54,0,0,1,.51.76,2.37,2.37,0,0,1,.19.92,2.41,2.41,0,0,1-.19.93,2.62,2.62,0,0,1-.51.75,2.31,2.31,0,0,1-.76.51,2.35,2.35,0,0,1-1.85,0,2.17,2.17,0,0,1-.75-.51,2.27,2.27,0,0,1-.51-.75,2.24,2.24,0,0,1-.19-.93,2.41,2.41,0,0,1,.7-1.68,2.17,2.17,0,0,1,.75-.51A2.23,2.23,0,0,1,168.51,51.29Zm0,4.42a2,2,0,0,0,1.45-.6,2.13,2.13,0,0,0,.44-.65,2,2,0,0,0,0-1.58,2.13,2.13,0,0,0-.44-.65,2,2,0,0,0-1.45-.6,1.93,1.93,0,0,0-1.43.6,2,2,0,0,0-.6,1.44,1.92,1.92,0,0,0,.16.79,2,2,0,0,0,.44.65A1.93,1.93,0,0,0,168.51,55.71Zm1.18-2.58a.68.68,0,0,1-.14.42.74.74,0,0,1-.38.26.69.69,0,0,1,.46.63,1,1,0,0,1,0,.23V55h-.48v-.26a1.09,1.09,0,0,0-.06-.43.47.47,0,0,0-.47-.28H168v1h-.49V52.35h1.13a1.32,1.32,0,0,1,.82.21A.73.73,0,0,1,169.69,53.13Zm-1.12.48a.93.93,0,0,0,.47-.11.36.36,0,0,0,.17-.31.4.4,0,0,0-.14-.32.8.8,0,0,0-.51-.11H168v.85Z" fill="#fff"/><polygon points="237.79 123.43 8.21 123.43 14.4 105.48 8.21 88.05 237.79 88.05 231.6 105.74 237.79 123.43" fill="#d0bb60"/><path d="M63.54,153.09a.53.53,0,0,1-.4-.19c-.83-1.07-1.65-2.17-2.43-3.27a.5.5,0,1,1,.81-.58c.77,1.09,1.58,2.18,2.41,3.23a.5.5,0,0,1-.08.7A.53.53,0,0,1,63.54,153.09Zm119-2.46a.5.5,0,0,1-.41-.79c.78-1.08,1.55-2.2,2.28-3.33a.5.5,0,1,1,.84.54c-.74,1.15-1.52,2.28-2.31,3.37A.48.48,0,0,1,182.51,150.63ZM55.86,141.19a.5.5,0,0,1-.44-.27c-.62-1.2-1.21-2.43-1.77-3.67a.49.49,0,0,1,.25-.66.5.5,0,0,1,.66.25c.55,1.22,1.14,2.44,1.75,3.62a.49.49,0,0,1-.22.67A.46.46,0,0,1,55.86,141.19Zm133.83-2.78a.41.41,0,0,1-.21,0,.5.5,0,0,1-.25-.66c.57-1.21,1.11-2.46,1.61-3.7a.5.5,0,0,1,.65-.28.51.51,0,0,1,.28.65c-.51,1.26-1.06,2.52-1.63,3.75A.49.49,0,0,1,189.69,138.41Z" fill="#e6cd69"/><line x1="153.82" y1="138.19" x2="159.16" y2="138.19" fill="none" stroke="#fff" stroke-linecap="round" stroke-miterlimit="10"/><line x1="86.67" y1="138.19" x2="92.01" y2="138.19" fill="none" stroke="#fff" stroke-linecap="round" stroke-miterlimit="10"/><path d="M62.75,112.9A7.18,7.18,0,0,1,60,110.25a7.36,7.36,0,0,1-1-3.82,7.25,7.25,0,0,1,1-3.82A7.13,7.13,0,0,1,62.77,100a8.7,8.7,0,0,1,7.2-.34,6.61,6.61,0,0,1,2.47,1.79L70.71,103a5.05,5.05,0,0,0-3.86-1.69,5.43,5.43,0,0,0-2.66.65,4.62,4.62,0,0,0-1.84,1.8,5.55,5.55,0,0,0,0,5.25,4.62,4.62,0,0,0,1.84,1.8,5.32,5.32,0,0,0,2.66.65,5,5,0,0,0,3.86-1.71l1.73,1.65a6.48,6.48,0,0,1-2.48,1.8,8.4,8.4,0,0,1-3.25.62A8.17,8.17,0,0,1,62.75,112.9Z" fill="#fff"/><path d="M87.92,111.4v2.25H77.09V99.2H87.64v2.25H79.77v3.76h7v2.21h-7v4Z" fill="#fff"/><path d="M102.43,113.65l-3-4.23-.55,0H95.66v4.21H93V99.2h6a8,8,0,0,1,3.27.62,4.7,4.7,0,0,1,2.13,1.78,5.36,5.36,0,0,1,0,5.55A4.72,4.72,0,0,1,102,108.9l3.32,4.75Zm-1-11.43a4.08,4.08,0,0,0-2.66-.75H95.66v5.76H98.8a4.08,4.08,0,0,0,2.66-.75,2.61,2.61,0,0,0,.91-2.14A2.56,2.56,0,0,0,101.46,102.22Z" fill="#fff"/><path d="M112.86,101.47h-4.79V99.2h12.26v2.27h-4.79v12.18h-2.68Z" fill="#fff"/><path d="M124.42,99.2h2.68v14.45h-2.68Z" fill="#fff"/><path d="M135.75,101.45v4.4h7v2.27h-7v5.53h-2.69V99.2h10.55v2.25Z" fill="#fff"/><path d="M148.28,99.2H151v14.45h-2.68Z" fill="#fff"/><path d="M167.76,111.4v2.25H156.92V99.2h10.55v2.25h-7.86v3.76h7v2.21h-7v4Z" fill="#fff"/><path d="M172.82,99.2h6.31a9.07,9.07,0,0,1,4.11.9,6.67,6.67,0,0,1,2.79,2.54,7.73,7.73,0,0,1,0,7.57,6.61,6.61,0,0,1-2.79,2.54,9.07,9.07,0,0,1-4.11.9h-6.31ZM179,111.38a6,6,0,0,0,2.79-.61,4.27,4.27,0,0,0,1.86-1.73,5.57,5.57,0,0,0,0-5.22,4.35,4.35,0,0,0-1.86-1.74,6.16,6.16,0,0,0-2.79-.61H175.5v9.91Z" fill="#fff"/><path d="M107.83,134.18l-2.84,8.4h-.93l-2.46-7.16-2.47,7.16H98.2l-2.83-8.4h.91l2.43,7.23,2.5-7.23H102l2.47,7.26,2.46-7.26Z" fill="#fff"/><path d="M115.39,141.81v.77h-5.94v-8.4h5.76V135h-4.88v3h4.35v.75h-4.35v3.12Z" fill="#fff"/><path d="M124,139a2.08,2.08,0,0,1,.45,1.38,1.93,1.93,0,0,1-.79,1.66,4,4,0,0,1-2.36.58h-3.87v-8.4h3.63a3.64,3.64,0,0,1,2.18.57,1.85,1.85,0,0,1,.77,1.59,2,2,0,0,1-.34,1.18,2,2,0,0,1-.94.73A2.24,2.24,0,0,1,124,139Zm-5.68-4.05V138H121a2.7,2.7,0,0,0,1.57-.39,1.45,1.45,0,0,0,0-2.27,2.7,2.7,0,0,0-1.57-.39Zm4.67,6.56a1.36,1.36,0,0,0,.58-1.2c0-1.05-.76-1.58-2.28-1.58h-3v3.16h3A3.12,3.12,0,0,0,123,141.47Z" fill="#fff"/><path d="M127,142.35a3.25,3.25,0,0,1-1.32-.79l.35-.68a3.32,3.32,0,0,0,1.21.74,4.58,4.58,0,0,0,1.56.28,2.83,2.83,0,0,0,1.69-.42,1.25,1.25,0,0,0,.56-1.07,1.07,1.07,0,0,0-.3-.8,2.22,2.22,0,0,0-.75-.47c-.3-.1-.71-.22-1.24-.35a13,13,0,0,1-1.51-.46,2.55,2.55,0,0,1-1-.68,1.85,1.85,0,0,1-.4-1.24,2,2,0,0,1,.34-1.15,2.31,2.31,0,0,1,1-.84,4.18,4.18,0,0,1,1.73-.31,5.16,5.16,0,0,1,1.41.2,4,4,0,0,1,1.19.54l-.3.71a4.29,4.29,0,0,0-1.13-.52,4,4,0,0,0-1.17-.17,2.72,2.72,0,0,0-1.66.42,1.31,1.31,0,0,0-.56,1.1,1.09,1.09,0,0,0,.3.81,2.13,2.13,0,0,0,.77.47c.31.11.72.22,1.24.35a11.72,11.72,0,0,1,1.5.45,2.42,2.42,0,0,1,1,.67,1.76,1.76,0,0,1,.4,1.22,2,2,0,0,1-.34,1.16,2.35,2.35,0,0,1-1,.83,4.45,4.45,0,0,1-1.74.3A5.44,5.44,0,0,1,127,142.35Z" fill="#fff"/><path d="M133.9,134.18h.89v8.4h-.89Z" fill="#fff"/><path d="M139.16,135h-2.95v-.77H143V135h-2.95v7.63h-.89Z" fill="#fff"/><path d="M150.35,141.81v.77h-5.94v-8.4h5.76V135H145.3v3h4.35v.75H145.3v3.12Z" fill="#fff"/><text transform="matrix(0.84, 0.55, -0.55, 0.84, 74.77, 168.53)" font-size="14" fill="#fff" font-family="Montserrat-Bold, Montserrat" font-weight="700">D</text><text transform="translate(85.98 175.6) rotate(23.97)" font-size="14" fill="#fff" font-family="Montserrat-Bold, Montserrat" font-weight="700">E</text><text transform="matrix(0.96, 0.27, -0.27, 0.96, 95.94, 179.94)" font-size="14" fill="#fff" font-family="Montserrat-Bold, Montserrat" font-weight="700">V</text><text transform="translate(107.31 182.99) rotate(7.65)" font-size="14" fill="#fff" font-family="Montserrat-Bold, Montserrat" font-weight="700">E</text><text transform="translate(118.06 184.29) rotate(0.83)" font-size="14" fill="#fff" font-family="Montserrat-Bold, Montserrat" font-weight="700">L</text><text transform="matrix(0.99, -0.13, 0.13, 0.99, 127.95, 184.42)" font-size="14" fill="#fff" font-family="Montserrat-Bold, Montserrat" font-weight="700">O</text><text transform="translate(141.3 182.47) rotate(-16.53)" font-size="14" fill="#fff" font-family="Montserrat-Bold, Montserrat" font-weight="700">P</text><text transform="translate(152.48 179.02) rotate(-24.8)" font-size="14" fill="#fff" font-family="Montserrat-Bold, Montserrat" font-weight="700">E</text><text transform="translate(162.46 174.31) rotate(-33.55)" font-size="14" fill="#fff" font-family="Montserrat-Bold, Montserrat" font-weight="700">R</text></g></g></svg>