<?xml version="1.0"?><svg version="1.2" baseProfile="tiny-ps" viewBox="0 0 300 300" xmlns="http://www.w3.org/2000/svg" xmlns:xlink="http://www.w3.org/1999/xlink"><title>SwiftTech</title><g><g fill="#fefefe" transform="matrix(.1 0 0 -.1 0 300)"><path d="M0 1500V0h3000v3000H0V1500z"/></g><g fill="#eaeaea" transform="matrix(.1 0 0 -.1 0 300)"><path d="M0 1500V0h3000v3000H0V1500zm1313 879c31-6 57-15 57-18s-17-16-38-28c-20-12-68-47-105-78l-68-56-65-82-65-82-49-100-49-100-21-82c-11-45-20-93-20-107v-26h-20v58c0 88 18 228 41 320 12 46 19 85 16 88s-35-8-70-26l-65-32-61-51c-95-81-153-169-197-297l-19-55v-250l19-55c44-128 102-216 196-295l59-51 65-32c35-17 93-39 128-48l63-17h85l85-1 55 13c30 7 91 30 135 51l80 38 67 61 66 61 38 57 38 57 30 86 30 85v230l-28 80c-31 91-53 130-108 197-21 26-38 49-38 53 0 3 29 19 65 36l65 29 71 12 71 12 19-24c11-14 40-65 64-115l45-90 21-80 22-80v-140l1-140-17-68c-76-308-296-548-592-646l-90-29-95-12-96-12-90 11c-49 6-116 18-149 26l-60 15-100 50-100 50-75 63c-148 124-243 273-296 463l-16 59-5 128-5 128 11 62c27 140 71 244 154 365l50 72 65 61c131 123 283 199 464 234l73 14 100-4c55-2 126-9 158-16zm697 6c105-18 166-38 255-83 248-124 417-340 479-615l16-68v-238l-16-68c-43-191-136-351-280-481l-66-60-74-42c-96-55-173-86-265-106l-74-16-105-1-105-2-72 14c-40 7-73 16-73 19 1 4 26 23 57 42l57 35 81 80 81 80 43 64c58 85 115 208 141 306l22 80 5 115 6 115 9-24c4-13 16-67 24-120l16-96-5-100c-5-87-21-185-43-264l-7-24 18 7c10 3 49 27 88 53l69 46 52 63c63 76 103 154 128 248l18 70v170l-16 65c-9 36-32 96-50 133l-33 66-50 60-50 60-76 51-76 50-82 26-82 26-95 1-95 1-55-12c-30-7-93-31-139-53l-83-40-77-76-77-77-36-70c-20-38-44-97-54-130l-18-60v-210l18-60c23-77 78-182 122-233 19-22 34-43 34-47 0-3-29-19-65-36l-65-29-71-12-71-12-19 24c-10 14-39 66-63 115l-45 90-22 85-22 85v270l22 84c49 187 140 332 288 462 149 131 372 215 573 218l65 1 85-15zM1425 388l10-8h-44l6 15 5 16 7-8c3-4 11-11 16-15zm512-30-4-23v40l-1 40 5-17c2-10 2-28 0-40zm-315 12c-2-16-6-30-8-30s-4 14-4 30v30h17l-5-30zm-99 13c-7-2-19-2-25 0l-13 5h50l-12-5zm-329-43c-6-5-24 21-24 34 0 6 6 1 14-10 8-10 12-21 10-24zm133 8-5-13v50l5-12c2-7 2-19 0-25zm660 0-5-13v50l5-12c2-7 2-19 0-25zm-886-1-12-12 7 18c3 10 9 15 12 12s0-11-7-18zm149 3c0-5-5-10-11-10h-10l6 10c3 6 8 10 11 10 2 0 4-4 4-10z"/></g><g fill="#d0d0d0" transform="matrix(.1 0 0 -.1 0 300)"><path d="M0 1500V0h3000v3000H0V1500zm1333 880c26-7 47-15 47-19 0-3-24-20-54-38-67-41-184-149-241-224-25-31-64-92-87-135l-41-77-29-91-29-91-6-63c-3-34-10-65-14-68l-9-5v226l15 90c8 50 22 114 30 143 9 30 15 56 13 58s-37-13-78-34l-75-37-76-75-76-76-42-84-41-85-15-70c-19-90-19-155 0-247l15-73 42-85 41-84 76-76 76-76 76-37 77-38 73-15 74-16 95 5 95 6 59 20c32 12 87 37 122 56l62 35 59 58 59 58 36 60c20 32 46 88 59 124l23 65 4 110 4 110-17 63c-24 93-55 159-113 233l-50 66 36 21c20 11 65 30 99 41l62 21h91l40-61c48-75 93-189 114-291l16-77v-202l-16-77c-9-42-29-112-46-156l-30-78-59-88-59-88-74-68-73-69-79-46c-87-51-159-81-249-104l-60-16-105-6-105-5-93 16-94 16-74 29c-41 16-107 48-147 72l-72 42-100 101-100 101-42 75-42 76-30 89-30 90-11 98-11 97 11 98 11 97 30 90c48 143 103 233 212 344 137 139 313 232 502 262l50 8 120-4 120-3 48-12zm780-14c315-93 552-339 629-654l21-87v-250l-17-70c-70-293-263-523-532-635l-79-33-95-19-95-20-115 6-115 5-50 14-50 13 65 44c126 85 243 213 315 342 77 141 112 266 124 445l7 108 19-80 20-80-1-165-1-165-20-73-19-72h10c18 0 118 68 165 113 24 23 63 72 87 108l43 66 28 79 27 79v230l-27 78-27 78-41 64-41 65-65 60-66 60-68 34-69 35-77 17-76 17-96-6-96-6-55-19c-79-28-126-53-196-106l-61-46-41-52c-52-67-96-157-116-235l-16-61v-184l16-61c20-79 72-180 123-241l40-50-20-14c-11-7-47-25-80-38l-61-25-63-6-64-6-40 64c-51 79-94 190-115 291l-16 77v202l16 77c9 42 29 111 45 153l29 76 59 89 59 89 64 61c114 109 252 187 398 224 108 27 122 29 260 25l125-3 88-26zM1096 398l7-11-16 6-16 6-6-9-5-9 22-3 23-3v-30l-24-3-23-4-12 12-11 11 28-6 27-7v22h-18c-10 0-22 3-25 7l-7 6 11 14c14 16 35 17 45 1zm325 5-13-5 13-9 14-9h-25v-20c0-28-17-25-22 4l-5 25 10 10c6 6 18 11 27 10l15-1-14-5zm229-3c0-5-7-10-15-10h-15l-1-27-2-28-4 25c-3 13-12 30-21 37l-17 12 38 1h37v-10zm292-44-11-21v80l10-19 11-18-10-22zm-422 34 15-10h-25v-14c0-8 6-17 13-19l12-5-18-1-18-1-8 23c-13 34-1 46 29 27zm-340-15c0-21 16-19 25 3l6 17 14-18 13-18 11 18 10 18 1-15c0-8-5-22-10-30l-10-15-14 18-14 18-10-17-9-17-10 6c-6 4-13 16-16 27l-5 20h9c5 0 9-7 9-15zm147-22-5-18v60l5-12c2-7 2-21 0-30zm431 20 4-13-24-1-23-1 25-8 25-8-27-1-27-1-6 10c-4 6-4 18-1 26l6 15 22-3c12-2 23-9 26-15zm108 6 7-11-22 7-21 6v-33l26 6 26 7-7-11c-8-13-52-13-60 0l-7 11 12 14c15 18 36 19 46 4zm120-4c3-8 4-19 2-24l-3-10-12 24-11 25h9c5 0 12-7 15-15z"/></g><g fill="#bababa" transform="matrix(.1 0 0 -.1 0 300)"><path d="M0 1500V0h3000v3000H0V1500zm1320 884 71-17-8-7c-4-3-37-27-73-52-99-70-154-122-220-210-119-158-200-367-200-516v-46l-11 11-11 11v257l11 65c7 36 19 93 28 128 8 35 13 66 10 68-8 8-97-40-157-85-30-23-77-67-103-99l-48-57-29-61c-16-34-37-90-46-124l-16-63 4-111 4-111 23-65c13-36 38-91 57-122l35-58 58-57c70-70 144-116 243-150l73-26 110-1h110l59 18c33 10 89 32 125 49l66 32 80 80 81 80 37 76 38 77 14 68 15 69v130l-15 67-14 68-31 66c-17 36-52 90-77 121l-46 56 24 18c35 26 120 57 196 70l67 12 18-23c38-46 88-147 117-235l29-90 12-97 12-98-12-97-12-98-29-90c-103-308-355-532-677-600l-73-15h-210l-77 16c-206 42-392 156-523 321l-60 76-40 78c-21 43-51 118-66 166l-26 88v310l26 88c15 48 45 123 66 166l40 78 59 75c127 159 284 260 487 313l90 24 121 1h122l72-16zm729 1c39-8 107-29 152-46l81-31 88-59 87-58 63-68c111-119 185-254 226-413l19-75v-140l-1-140-22-80c-30-104-65-184-120-270l-45-70-71-71-71-71-78-51-78-51-77-30c-42-16-112-36-154-45l-77-16h-199l-78 15c-42 8-79 16-81 18-2 3 27 24 64 48l67 44 76 75c146 144 238 316 281 525l13 60v108l1 108 12-29c6-16 19-66 29-112l16-83-5-156-5-156-17-59c-9-32-14-60-12-62 8-8 128 77 172 121 25 24 63 73 85 107l40 61 26 81 26 81v210l-27 83-26 83-53 77-52 77-59 48c-33 26-91 64-130 83l-70 34-70 15c-38 8-97 15-131 15h-61l-75-19c-41-11-106-34-144-53l-69-33-80-80-81-80-37-76-38-77-15-73-16-74 5-90 6-90 24-73c26-75 70-152 121-210l30-34-25-19c-34-26-119-57-195-71l-65-12-24 30c-36 44-100 181-123 259-11 39-26 114-32 167l-12 96 12 89c30 224 114 395 271 552 69 68 150 123 254 172l83 39 78 19 79 19 122 1 122 1 70-15zM1432 402l-12-4 6-9 5-9h-21v-20c0-29-17-25-23 6l-4 25 14 14 14 14 16-6 17-7-12-4zm542-12h16v-61l-10 6c-5 3-10 13-10 21s-4 14-10 14c-5 0-10-6-10-14s-4-18-10-21l-10-6v48l1 48 13-17c7-10 21-18 30-18zm-869 10 6-10-23-1h-23l21-9c12-5 25-13 28-19l7-10-19-10-19-10-21 6c-12 3-22 9-22 14v9l28-5 27-5-27 12c-27 11-35 27-21 41 10 11 51 8 58-3zm225-31v-40l-10 6-11 7 3 34c1 19 6 34 10 34h8v-41zm180 31c0-5 8-11 18-11l17-1-17-5-18-4v-29h35l-14-9c-8-5-20-7-27-4-13 5-23 41-16 61 4 14 22 16 22 2zm140 0c0-5-4-10-9-10s-11-11-13-25-7-27-13-28l-10-2-3 28-3 27h-10c-5 0-9 5-9 10v10h70v-10zm-466-22 6-13 6 13c3 6 12 12 20 12h14v-22l15 12c24 20 30 4 10-26l-18-27-12 16-12 16-16-16-16-16-11 27c-12 33-12 36-1 36 5 0 12-6 15-12zm575-2 12-14-15-15-16-15-20 5-20 5v17c0 10 3 21 7 24 11 12 40 8 52-7zm111 4v-10h-41l6-10 7-11 21 6 22 6-19-15-19-15-18 10c-34 18-22 49 18 49h23v-10z"/></g><g fill="#a8a8a8" transform="matrix(.1 0 0 -.1 0 300)"><path d="M0 1500V0h3000v3000H0V1500zm1247 900c84-12 143-27 143-38-1-4-26-23-57-42s-91-68-135-109l-79-74-45-62c-24-34-62-98-83-141l-40-79-25-88-26-88-6-79-7-80h-15l-7 98-7 97 11 100c6 55 20 136 31 179 11 44 20 81 20 83s-33-13-72-34l-73-37-71-71-71-70-28-49c-16-27-39-78-52-114l-24-66-6-95-5-96 16-75 16-75 37-75 38-75 75-75 75-75 70-36c39-20 100-44 137-54l67-18 113 5 113 5 80 31 80 32 69 52 69 52 45 60c25 34 57 88 73 121l27 61 16 77c20 96 20 138 0 234l-16 77-28 63c-16 34-49 89-74 122s-46 64-46 69c0 12 124 69 180 81 25 6 61 11 81 11h35l47-78 46-78 30-90c17-49 35-123 42-164l12-75-6-105-6-105-26-89c-59-203-170-364-336-487l-67-49-85-40-84-40-89-21-89-21h-130l-130 1-78 20c-101 26-183 63-278 123l-77 48-79 83-80 83-42 72c-54 91-99 204-117 299l-14 75v196l14 75c18 95 63 208 117 299l42 72 80 83 79 83 57 37c194 129 410 182 628 153zm837-20c323-82 568-322 662-650l19-65v-330l-19-65c-89-310-318-546-621-639l-70-22-92-9-93-8-88 8c-93 9-172 26-172 38 0 4 26 23 58 42l57 34 82 79 81 78 51 74c60 87 103 178 138 295l25 85 7 145 7 145 21-70c26-83 43-201 43-293 0-71-23-233-40-276l-10-26h9c4 0 34 17 67 38l59 38 58 65 59 64 38 80 39 80 10 59c14 76 14 176 0 252l-10 59-41 84-40 83-76 77-77 77-70 36c-38 20-98 43-131 52l-62 16h-201l-81-26-81-25-77-53-77-52-48-59-48-60-34-70-34-70-15-77c-20-97-20-139 0-235l16-77 28-61c15-33 41-78 58-100s41-52 52-67l21-27-60-31c-68-34-158-60-207-60h-33l-21 27c-12 15-41 68-66 118l-44 90-21 80-22 80v290l21 80c25 89 85 221 132 290 137 199 361 340 605 381l80 13 102-5 102-5 75-19zM1338 372l3-42h-31v92l13-4 12-5 3-41zm97 37 7-10-17-35c-9-18-20-34-25-34h-10v19c0 11-4 22-10 26l-9 6 17 19c18 22 37 26 47 9zm515-3v-15l23-3 22-3v-48l-12-4-13-5v42h-20v-42l-12 4-13 5-3 27c-2 15-1 34 2 42 7 18 26 18 26 0zm-840-22 10-26-11-15-12-14-26 3-26 3-2 25c-1 14 0 31 2 38l4 12h51l10-26zm413 12 18-14-18-11-18-10 18-1h19l-4-12-5-13h-37l-13 25-12 24 11 13c13 16 18 16 41-1zm137 4c0-5-7-10-15-10h-15v-60h-30v53l-17 13-18 13 48 1h47v-10zm-390-22c0-5-5-18-10-29l-11-19h-29v24l-12-12c-18-18-26-15-42 16l-15 29h119v-9zm495-18v-25l-26-3-26-3-12 15-13 16 6 16 6 15 32-3 33-3v-25zm110 0v-25l-28-3-27-3-6 15c-3 9-3 23 0 32l6 15 27-3 28-3v-25zm-35-1v-10l10 6c6 3 10 8 10 11 0 2-4 4-10 4-5 0-10-5-10-11z"/></g></g></svg>
