<?xml version="1.0"?><svg version="1.2" baseProfile="tiny-ps" viewBox="0 0 300 300" xmlns="http://www.w3.org/2000/svg" xmlns:xlink="http://www.w3.org/1999/xlink"><title>SwiftTech</title><g><g fill="#fefefe" transform="matrix(.1 0 0 -.1 0 300)"><path d="M0 1500V0h3000v3000H0V1500z"/></g><g fill="#dddcdc" transform="matrix(.1 0 0 -.1 0 300)"><path d="M1843 2874c-12-14-22-27-22-30s-24-33-53-66-59-70-67-82-18-23-21-26c-4-3-22-33-40-67-19-35-36-63-40-63-3 0-13 12-22 28-9 15-25 36-35 47s-29 36-42 55-47 59-75 88l-50 52h-47l-15-35-14-34v-116l-10-15-9-14 12-9 12-9-13-5c-7-2-17-13-22-23l-10-19 12-7 11-7-7 11-7 12h10c14 0 14-13-1-28l-12-12h24v-52l-37 33c-50 43-182 129-199 129-8 0-28 14-46 30l-31 30h-21c-12 0-29-7-38-14l-18-13v-52l23-18 23-18 26-65c24-58 35-95 44-140 2-8 6-31 10-50s8-41 10-47c1-7-2-13-8-13h-9l7-22c4-13 12-26 18-30l11-8h-17l10-13c6-7 14-28 17-47 7-43 28-75 57-92l23-13 168-3 167-4v-98h20v110h69l3-40 3-40h10l10 1-3 41-4 41 14 8c7 5 16 9 21 9h7v-82l13 5 12 4-3 35-3 36 30 10 29 10 7-21 8-22 5 25 4 25 8-20 8-20 11 28c6 15 15 27 21 27 5 0 10 7 10 15 0 17-13 19-38 6-9-4-36-11-59-14l-43-5v131l81-5 82-5 12-16 12-17h51l12 15 13 15-12 43c-7 23-16 87-20 142l-7 100 9 154 9 154 14 14c8 8 14 23 14 33v19l-22 12c-13 7-25 15-28 20l-5 8-22-25zm-33-210-12-14h27l-12-8-12-8v-29c0-17 3-102 5-190l5-160h-386l-37-8-38-8v20l38 10c20 5 83 15 139 22l101 13 54-11c29-5 59-12 67-14l13-4 5 12 4 11-53 18-53 19-165-2-165-1-55-15c-30-8-67-21-82-28l-28-12v-48l16-6 15-6 25 11 24 12v-10c0-10-72-50-90-50-5 0-10 6-10 13 0 21-87 282-105 318-9 17-15 33-13 35 13 12 232-130 251-162l8-14h56l6 68c19 203 37 302 37 199v-47h22l-7 48-7 47 16-20 15-20 2-45 2-45 6 39 6 39 35-44c20-24 55-70 78-101l43-58h48l15 28 15 27 1-17v-18h20v48l1 47 14 25 14 25 2-15c1-8 3-51 3-94l2-80 9-3 10-3v247l30 39 30 39 3-23 4-23-12-15zm10-65v-30l-9 5-8 6 5 25c6 34 12 32 12-6zm-773-391-5-13-1 19c-1 11 2 17 5 13 3-3 4-12 1-19zm581-65-3-68-115-8c-63-4-159-6-212-5l-97 4-8 8-8 8 30 24 29 23 96 30c119 38 171 49 238 50l53 1-3-67zm-103 327c3-5 8-10 11-10 2 0 4 5 4 10 0 6-5 10-11 10h-10l6-10zm-487-345c-8-8 2-45 13-45 10 0 10 8 0 33-3 10-9 15-13 12zm-833-350-25-24v-66l21-35c12-19 83-96 159-170s159-161 184-193l46-58v-57l-16-6c-9-3-39-6-67-6h-52l-25 13-24 12-27 40-26 40-16 65c-9 36-22 93-29 128l-12 63-18 19-19 20h-18c-10 0-29-8-41-18l-23-19 1-59c1-32 8-93 16-134 57-279 62-296 89-319l16-13 18 4 18 3 10 23c12 26 11 26 65 7l43-15h142l39 23c22 12 48 34 60 50l20 28v104l-25 55-26 55-74 80c-41 44-99 104-129 133l-55 52 30-9c54-15 115-51 155-91l40-40v-22c0-29 35-87 56-95l17-6 14 9 15 9 4 180 3 180-21 22-21 23h-38l-24-25-25-24v-61l-49 35c-85 62-223 114-304 115h-28l-24-25zm980-76c-66-4-167-7-225-8l-105-1-25-13-25-12-3-30-3-30 27-28c34-37 63-47 130-47h55l-6-177-6-178 18-35 18-35 18-3c10-2 26 0 35 4s21 8 26 8c5 1 12 10 17 21l7 20-5 191-6 190 74 13 74 13 18 16 17 15v37h20v23c0 13-6 30-12 38l-13 14-120-6zm1217-11c-7-7-12-19-13-27v-16l-9 20-9 20v-121l-1-121-25-23-26-24 3-21 3-20 28-13 27-13v-164l20-32 20-33h40l19 19 18 18 7 85 7 84-6 27-7 27h56c31 0 56-1 56-2 1-2 5-61 9-131l8-128 15-16 16-15 21 7c12 3 26 15 31 26l11 19 11 115 11 115h27l15 36 15 36-10 19c-6 10-19 23-30 29l-20 11v169l-20 20-20 20h-50l-21-21-21-21 7-83 7-82-53-6c-28-4-56-4-60-1l-9 5v155l-26 32-27 32h-16c-10 0-22-5-29-12zm-354-18c-20-11-63-45-96-75l-60-55-21-45-21-44-6-56-7-56-17 16c-9 8-25 15-36 15-20 0-135-40-243-84-79-32-81-32-81-2v24l48 20c75 32 143 53 201 63 29 4 64 15 77 24l24 15v16c0 9-9 29-21 45l-20 29h-96l-60-20c-33-11-82-29-109-40l-47-21-8 13-8 13 7 6c9 9 100 40 229 79 56 16 104 34 107 38 2 4 2 19-1 33l-5 27-21 9-22 10-75-3-75-2-80-22c-44-12-100-30-125-41l-46-20-2-19c-6-45-4-100 7-190 7-52 16-129 20-171l8-76 24-26c12-15 29-27 37-27 7 0 60 18 117 40 56 22 145 51 196 64l93 24 18 22 18 22v-11c0-17 70-90 102-107l28-15v-73l-14 20-14 19-8-8-7-7 14-1h14l-20-8-19-8 26-26 26-26-31 5-32 6 15-11 15-11-10-1c-5-1-14-3-20-4-5-2-16-3-22-4-7 0-13-6-13-12v-10l10 6 10 6v-15c0-8-8-20-17-26l-18-11 27 5 26 6-5-20-5-20h23l-7 12-7 11 12-7 12-8-5-14-5-13 9-6c6-4 10-14 9-23v-17l-10 20-9 20 3-20 2-19 23-12 22-11-8-7-7-8 20-14c11-8 19-17 18-19-2-3-2-24-2-47l2-43 7 35 8 35V615c1-60 1-128 1-149l1-39 7 7c4 4 6 27 4 51l-2 44 33-5 34-6 13 16 13 16-6 16c-3 9-15 18-26 21s-20 9-20 13v8l20-5 20-5v34l-40-4-40-4v56h24l-12 12c-7 7-12 15-12 20v7l14-5 13-5-3 28-3 28 5-18 6-17 9 6 9 5 15-15c8-8 15-22 15-30 0-9 4-16 9-16s16-3 24-6l15-6-4 44-4 43 13-17c21-27 27-22 27 24v42l13-17 12-17 17 30 17 30h-20l12 23c7 12 17 25 23 29l11 7v101h-14l5 14 6 14-14-2c-7-1-19-5-25-9l-13-8v15c0 9 4 16 9 16h9l-11 25-12 24-7-22-6-22-1 18-1 18-32-22c-17-13-29-18-25-12l7 11-7 5c-5 2-3 2 4 1 7-2 15 2 19 8l7 10-14 9c-8 5-22 7-31 5l-18-4v28h13c7 0 19-6 26-12l14-13-6 17-6 18 30 15 29 16 29 39 28 39 13 45 13 46-5 55-5 55-18 20-18 20h-57l-14-22-15-23 10-42 9-43-9-42-10-43-33-27-32-28h-84l-30 28-30 28-12 44-12 44 7 45c4 25 14 59 22 76 21 39 63 95 73 95h8l7-115 7-115 20-26 20-25 22 3 21 3v386l-15 9c-23 14-51 11-92-10zm-8-579c8-2 26-6 40-10l25-6 3-14 3-14-13 10c-7 6-28 13-45 15l-33 5v-8c0-4 5-10 10-12l11-5-13 2-13 3-3 29-3 29 8-10c4-5 15-12 23-14zm-79-174-12-12 7 18c3 10 9 15 12 12s0-11-7-18zm149-151c0-3-4-8-10-11l-10-6v10c0 6 5 11 10 11 6 0 10-2 10-4zm-13-212c-6-6-47 9-47 17v9l25-12c14-6 24-13 22-14zm-145 552c7-8 15-12 17-11 5 6-10 25-20 25h-10l13-14zm-21-45-13-8 10-7 10-6 6 15c6 17 6 18-13 6zm346 2c-4-3-7-11-7-17v-10l12 12c6 6 9 14 7 17-3 3-9 2-12-2zm28-3-6-10h10c6 0 11 5 11 10 0 6-2 10-4 10-3 0-8-4-11-10zm-388-31c7-7 15-10 18-7s-2 9-12 12l-18 7 12-12zm397-57v-19h25l-10 19c-5 10-11 18-12 18-2 0-3-8-3-18zm9-39c-17-6-17-23 0-23h14v15c0 8-1 15-1 14-1 0-7-3-13-6zm-46-77-6-14 12-5 13-5v19c0 22-12 25-19 5zm44-12 1-19 5 13c3 7 2 16-1 19-3 4-6-2-5-13zm-403-1c7-3 16-2 19 1 4 3-2 6-13 5l-19-1 13-5zm387-54c11-13 21-26 23-28 1-3 1 6-1 20l-4 24-19 4-19 3 20-23zm-85-44c0-8 5-15 10-15 6 0 10 7 10 15s-4 15-10 15c-5 0-10-7-10-15zm41-11 1-19 5 13c3 7 2 16-1 19-3 4-6-2-5-13zm-14-31c-4-3-7-11-7-17v-10l12 12c6 6 9 14 7 17-3 3-9 2-12-2zM740 576v-56h30v30h19c10 0 24 7 31 14l12 15-4 23-3 23-42 3-43 3v-55zm52 19c0-5-5-11-11-13l-11-4v34l11-4c6-2 11-8 11-13zm78-20v-55h15c7 0 18 7 23 16l9 15 12-15c8-9 19-16 25-16h12l-1 43c-1 23-3 48-3 55l-2 12h-90v-55zm60 20c0-8-4-15-10-15-5 0-10 7-10 15s5 15 10 15c6 0 10-7 10-15zm80-20v-55h30l1 33c1 17 3 42 4 55l2 22h-37v-55zm76 33c3-12 13-37 21-55l14-34 16 3 17 3 23 53 23 52h-38l-12-31-13-31-13 31-13 31h-32l7-22zm155-23c-31-65-26-80 19-53l19 12 25-14c14-7 29-11 32-8s-4 29-17 57l-21 51h-36l-21-45zm141 33-12-12v-53l18-16c30-27 82-16 82 16v9l-24-4c-14-3-30-2-37 3l-12 7 7 17 6 16 27-3 28-3v30l-35 3-35 3-13-13zm118 7c0-2 9-19 20-37s20-41 20-50v-18h30v23c0 12 9 37 20 55l20 32h-17c-8 0-22-8-29-17l-13-18-6 18-7 17h-19c-10 0-19-2-19-5zm212-47 3-51 13-5 13-4 6 21 5 21h38v30h-40v20h50v20h-91l3-52zm120 0 3-53 18-3 17-3v111h-41l3-52zm80 0 3-53 18-3 17-3v15c0 20 16 21 24 1 3-8 11-15 19-15h13l-1 53v52l-48 3-48 3 3-53zm60 17c0-5-5-11-11-13l-11-4v34l11-4c6-2 11-8 11-13zm198 25c0-5 7-10 15-10h15v-91l18 3 17 3 3 43 3 42h15c8 0 14 5 14 10v10h-100v-10z"/></g><g fill="#b6b5b5" transform="matrix(.1 0 0 -.1 0 300)"><path d="M1848 2869c-10-5-18-15-18-21 0-5-22-33-50-62-63-66-105-123-145-198l-32-59-39 52c-21 29-49 68-62 87s-47 58-76 88l-52 54h-16c-9 0-23-7-32-15l-14-15-8-92c-4-51-7-97-6-102 2-5-7-19-18-31l-22-23 13-7 12-8-7 11-6 11 10 6 10 6v-101l-47 36c-73 54-180 124-191 124-6 0-23 11-39 24-15 13-38 26-50 30l-22 7-20-13-21-13v-46l23-22c35-32 56-79 83-182 4-16 8-32 9-35s5-25 10-50c10-52 10-50 18-70 4-8 9-31 11-50 5-38 19-95 31-122 4-9 19-25 33-35l27-18h335v-94l10-6 10-6v111h70v-80h20v88l16 6c24 9 24 9 24-28v-35l9-6 10-5 3 42 3 42 28 7 27 7v-14c0-20 18-17 23 4l5 17 1-18 1-18 10 6c6 3 10 15 10 26v19h30v15c0 17-1 18-32 6-13-4-42-11-65-15l-43-6v140h23c12 0 48-4 81-10l59-9 17-16c9-8 26-15 37-15h21l13 16 13 15-12 32c-6 18-16 82-21 142l-9 110 7 151 8 151 17 24c20 29 20 34 0 53-18 18-32 20-56 5zm-23-161c-3-18-7-41-9-50-1-10-5-21-9-24-4-4-7-17-6-28l1-21 8 25 8 25 1-37 1-38h-15l3-159 3-160-38 11-37 10-171-5c-93-3-180-8-192-12l-23-7v20l33 10c17 6 74 16 124 22l93 13 62-6c35-4 73-10 86-13l22-6v9c0 13-59 30-152 44l-77 11-123-11c-118-10-164-20-218-45l-25-12-3-22-3-22 14-5 14-6 26 10 27 11v-28l-42-18c-24-10-46-20-50-22-5-2-8 4-8 14 0 22-85 275-111 328-10 22-19 42-19 44 0 6 151-78 190-106 19-14 49-39 66-55l32-29 18 4 19 3 6 60c24 220 39 300 39 207v-42h20l-7 43-6 42 16-14 17-13 1-47 2-46 6 35 6 35 45-56c25-30 56-71 70-89s31-39 38-47c26-26 58-11 72 33l8 29 1-28 1-28 8 5c5 3 10 26 10 51 2 49 16 85 32 85h10v-97c0-53 3-94 6-90 4 3 6 56 5 116l-2 110 12 23c15 28 60 88 66 88 2 0 1-15-2-32zm-509-475c-10-10-19 5-10 18l8 13 4-13c2-7 1-15-2-18zm312-85-3-73-60-7c-33-4-127-8-208-9l-149-1-10 10-11 11 12 15c38 46 269 116 414 125l18 1-3-72zM209 1771l-29-29v-17c0-8 7-32 15-53l16-37 127-125c70-69 156-158 190-198l62-72 6-25 6-25-12-15-12-15H434l-31 33c-45 47-60 83-87 212-14 64-30 123-37 131l-11 14h-55l-16-18-17-19v-44c1-24 7-75 14-114 35-186 50-253 64-293l15-43 19-10 20-11 19 18c10 9 19 24 19 32v14l18-7c77-33 161-42 227-24l40 11 37 38 38 38v104l-29 62-30 61-121 128-122 127h14c7 0 36-11 65-24l52-25 45-41 44-41 7-41 7-41 24-24c25-25 32-27 51-15l12 8 4 169 4 170-14 28-14 27h-58l-15-16-16-15v-79l-47 34c-72 51-146 85-231 106-99 25-98 25-133-9zm800-81-167-5-21-19c-29-26-26-44 12-90l33-39 78-5 77-5-6-26c-3-14-6-98-7-186l-2-160 12-22c7-12 21-25 32-28l20-6 30 13 30 13 1 15c1 8 0 102-1 208-1 105 0 192 2 192 9 0 124 21 141 26l17 5 20 41 20 41-6 23-6 24-72-2c-39-1-146-5-237-8zm1397-6c-9-8-16-25-17-37l-1-22-8 25-8 25-1-114-1-113-25-30c-14-16-25-33-25-38 0-13 30-40 44-40h13l6-94 5-93 13-22c16-25 31-31 57-24l20 5 11 24 11 25v199h117l5-132 6-132 17-12 18-13 18 10c10 5 24 19 30 30l11 21 5 99 6 99 29 31 29 30-3 32-3 32-22 10-23 10v162l-21 27-20 26h-40l-24-24-23-23 5-80 6-80-24-6c-13-4-41-7-61-7h-38v139l-10 25c-10 28-45 66-59 66-5 0-17-7-25-16zm-9-136-4-23v90l4-22c2-13 2-33 0-45zm-346 120-44-22-59-57-58-57-19-44c-11-23-22-66-26-95l-7-52-25 16-25 16-66-22c-37-13-106-38-153-57s-91-34-98-34h-11v47l60 27c68 31 135 51 200 61 57 9 77 20 85 45l6 20-21 30-21 30h-84l-60-19c-33-10-84-28-113-40-29-11-57-21-62-21h-10v37l113 36c61 20 138 43 170 52l57 16v57l-13 10-13 11-100-3-99-3-85-27c-47-14-96-33-110-42l-25-15 25 7c51 14 54 14 25 0-17-8-39-24-49-35l-20-22 12-47c6-26 17-99 22-162 6-63 12-129 14-146l3-31 23-31c13-18 27-32 31-32s61 20 126 44c66 25 158 55 206 67l88 22 10 19 10 19 29-40 29-40 44-25c24-14 51-26 60-26h17v-21l9 5 9 6 5-12 5-13 11 15 11 15v-12c0-7 5-13 11-13h10l-6 10-6 9 25 7 25 6 10-7 11-6v9c0 5 18 22 41 36l41 27 25 55 24 54 6 53 5 52-15 37-16 37-24 6-25 7-22-12-22-12 7-73 7-73-17-36-18-37-30-15-30-16h-66l-29 21-30 21-16 40-16 40v38c0 21 7 59 15 83l16 45 30 37c17 20 38 41 47 46l17 9-3-110-3-111 12-29 12-30 24-9c14-5 29-7 34-4l9 6-6 187-6 187-10 13c-15 17-37 15-87-10zm-416-28c-11-5-29-8-40-8h-20l25 8c14 4 32 8 40 8l15 1-20-9zm-85-20c-14-4-34-8-45-8h-20l25 8c14 4 34 8 45 8h20l-25-8zm-85-20c-11-5-27-9-35-9h-15l20 9c11 5 27 9 35 9h15l-20-9zm60-240c-3-5-14-10-23-9h-17l20 9c27 11 27 11 20 0zm573-302c-16-16-22-15-19 4 0 4-8 6-19 5-22-1-26-13-7-20l12-5-19-1-19-1-13 18-13 17-1-28v-28l20 6 20 6v-17h-60v13c0 7-4 13-10 13-16 0-11-18 9-32 26-19 28-23 11-42-8-10-15-25-17-34-1-9-7-18-12-20-6-2-11-8-11-13v-10l8 5 9 5 1-29c1-17 3-37 4-45l1-14 8 5 8 5 7-26 6-25 10 6 10 6-2-18c-1-11-1-39 0-64l3-45 7 45 7 45 1-159 2-159 7 7c4 4 6 27 4 52l-3 45 24-2c13-1 30-1 39-1l17 2 6 16 6 17-11 13c-6 8-20 14-30 14h-19v22l25-6 25-6v32l-40-4-40-4v43c0 23 5 54 11 70l10 27 9-14 10-15v17c0 9 5 20 11 24l11 7-6-21-7-20 16-6 15-5v-36l20-13 20-12 1 17c1 10 0 27 0 39l-2 21h30l-5-8c-2-4 0-10 6-14l10-6v83l15-12 15-12v16c0 28 1 31 16 54l15 23-7 11-7 11 11-7 11-6 5 9 6 9-13 5-12 5-3 23c-3 31-7 50-16 71-4 9-5 21-2 27l6 10-11 7-12 7 7-11 7-12h-32l6 10c8 12 3 13-29 1l-24-10-12 15-12 14h16c9 0 16 4 16 8s-12 8-27 8h-27l-18-18zm32-21 15-7-19 3-19 2-4 15-5 15 9-11c4-6 15-14 23-17zm-24-478 5-9-30 2-31 2v23l25-5c14-2 28-8 31-13zm160 442c4-9 7-28 7-43l-1-28h23v58l-9-6-9-5 5 20 5 20h-28l7-16zm-307-10 13-9-13-4-14-5 7-8 7-7 15 5 16 6-6 16-6 15h-33l14-9zm-18-57 1-19 5 13c3 7 2 16-1 19-3 4-6-2-5-13zm335-79-5-15h8c5 0 11 7 15 15l5 15h-8c-5 0-11-7-15-15zm-56-110c0-8 5-15 10-15 6 0 10 7 10 15s-4 15-10 15c-5 0-10-7-10-15zM740 575v-55h10c5 0 13 6 17 13s20 18 36 24l27 13v18c0 10-5 23-12 30l-12 12h-66v-55zm58 17 4-12h-32v32l12-4c6-2 14-10 16-16zm74-14 3-51 13-5 12-4v32h11c7 0 18-8 25-17l13-18 11 11 12 12-11 6-10 7 11 24 11 24-13 16-12 15h-79l3-52zm66 15 4-13h-42v31l17-3c9-2 18-9 21-15zm74-15 3-53 10 2 10 3 3 50 3 50h-32l3-52zm69 45c1-18 45-97 55-100l11-4 22 50c25 59 25 61 7 61h-14l-12-32-12-33-14 33-14 32h-15c-8 0-15-3-14-7zm161-43-21-50 9-5c4-2 13 2 20 10s21 15 31 15h18l9-16 9-17 11 7 11 6-22 50-22 50h-32l-21-50zm43 0 6-10h-10c-6 0-11 5-11 10 0 6 2 10 4 10 3 0 8-4 11-10zm96 36-12-15 3-28 3-28 24-11 24-12 19 7c11 4 19 11 19 16l-1 10h-55l-3 23-3 22 13 1c7 1 21 2 30 3 10 1 19 6 20 11l3 10-36 3-36 3-12-15zm138-22c12-19 21-44 21-55v-21l13 4 12 5 3 24c2 13 10 32 18 43 18 26 18 36 1 36h-14l-10-22-10-23-12 23-12 22h-31l21-36zm201-19v-55h9c5 0 11 10 13 23l3 22 23 3c12 2 22 8 22 13v9h-50v20h60v20h-80v-55zm120-1v-56l13 4 12 5 3 51 3 52h-31v-56zm80 1v-55h10c5 0 13 8 19 17l9 18 21-19c12-11 21-17 22-15 0 2 2 22 4 43l4 40-11 13-10 13h-68v-55zm58 17 4-12h-32v32l12-4c6-2 14-10 16-16zm192 28c0-5 6-10 14-10h15l3-42 3-43h20l3 43 3 42h15c8 0 14 5 14 10v10h-90v-10z"/></g><g fill="#8f8989" transform="matrix(.1 0 0 -.1 0 300)"><path d="M1848 2866c-10-7-18-17-18-21s-25-35-56-68c-63-69-106-129-145-200l-26-49-87 115c-86 115-136 167-160 167-7 0-20-8-28-17l-16-18-8-90c-10-119-10-122-12-183l-2-53-52 40c-29 22-84 59-123 82-38 23-81 50-95 60-14 11-36 24-49 29l-24 11-22-15-22-14v-37l27-30 28-30 25-70c25-71 64-229 70-281 2-16 9-50 16-77l13-47 29-25 29-24 45-7 45-6 147 5c82 3 158 8 171 12l22 7v-30c0-17 3-39 8-49l7-18 5 50 5 50 22 3 22 3 4-43 4-43 1 46 2 47 30 4 30 5v-14c0-7 5-13 10-13h10l1 23v22l8-19 8-20 5 22 6 22h32v23l-35-7c-19-3-51-9-70-12l-35-7v143h28c16 0 55-5 88-11l59-11 8-14 8-14h48l11 19 10 19-16 44-16 43v244l1 243 16 17 15 18v51l-16 6c-21 8-26 7-46-8zm-22-158c-3-18-9-130-12-249l-7-215-61 9-61 9-135-6c-74-3-152-9-174-12l-39-7 5 13 4 14 55 12c30 7 99 16 155 20l100 6 54-11c29-6 55-9 58-7 9 9-65 33-142 45l-79 13-81-7c-148-13-219-26-268-52l-28-14v-37l16-6 15-6 19 10c25 13 30 13 30-3v-13l-46-22c-26-13-47-22-48-20s-23 71-50 153c-27 83-57 167-67 187-11 21-19 40-19 43 0 8 119-54 170-88 25-17 61-47 81-65l37-34 18 4 18 3 13 120c7 66 16 140 22 165l9 45 1-54 1-54 7 7c4 4 6 26 4 49l-2 42 15-20 15-20 2-45 2-45 6 37 6 37 75-95c41-53 83-100 93-105l17-10 11 7c6 3 17 20 25 38l13 31 2-25 1-25 9 45c11 55 29 100 40 100h8l4-102 3-103 2 125 2 125 35 48c20 26 38 47 41 47s3-15 0-32zm-510-475c-10-10-19 5-10 18l8 13 4-13c2-7 1-15-2-18zm-39-5-5-13-1 19c-1 11 2 17 5 13 3-3 4-12 1-19zm353-83v-75h-22c-13-1-85-5-162-9-76-5-165-6-197-4l-59 6v36l63 30c96 45 250 85 355 90l22 1v-75zM210 1770l-20-20v-67l32-44c17-24 95-107 174-184 78-77 156-160 173-184l31-44v-56l-21-12-22-11-65 4-65 4-38 42-37 42-20 78c-11 42-26 105-32 140l-13 64-14 14c-28 28-66 15-82-29l-11-28 10-72c14-99 48-261 68-326l17-54 18-11 18-11 24 28 25 28 47-17 48-16h135l37 19c20 11 46 32 57 47l21 27v104l-26 56-27 56-133 138-134 138 30-7c17-4 58-20 92-37l62-30 31-37 31-37 10-42 11-42 18-16 19-17 16 4 17 3 3 175 4 175-15 23-14 22h-40l-20-20-20-20v-35c0-19-2-35-5-35s-26 15-52 34c-96 68-221 116-300 116h-33l-20-20zm820-79-175-6-21-12c-12-7-24-20-28-29l-6-16 21-34c27-45 47-54 128-61l69-6-6-172c-5-181-2-214 24-239 20-20 38-20 58-1 8 9 19 14 23 13l8-3 5 210 5 210 55 7c30 5 67 13 81 19l25 10 14 37c8 20 13 42 11 47-2 6-4 16-4 23v12l-56-2c-31-1-135-4-231-7zm1373-12-11-11 4-81 3-82-9 74c-6 41-13 77-16 80l-7 6 6-111 6-112-24-18-25-19v-53l16-6c9-3 19-4 23-1l8 4 7-102 7-102 17-18 16-18 25 3 26 3 12 25 13 25v195h117l6-123c4-68 9-132 13-141l7-17 26 3 26 3 13 28 13 27 6 105 6 105h26l17 31 16 31-6 23-6 24-20 6-20 6-1 72c-1 40-4 83-8 97l-7 25-26 14-26 15-27-18-26-17 3-90 3-89-13-5c-8-3-35-5-61-5h-48l-6 85-6 85-18 25-18 24-20 1c-12 0-26-5-32-11zm130-296c-7-2-19-2-25 0l-13 5h50l-12-5zm-503 269c-90-57-165-151-175-219-3-18-7-49-10-68l-6-35-15 15-15 15h-32l-32-1-125-48c-69-26-133-51-142-56l-18-7v63l56 25c56 25 167 57 236 69l38 6 10 19 11 20-11 19c-5 11-17 27-26 35l-15 16h-67l-91-30c-50-16-104-36-120-44l-28-15-7 6c-3 4-6 14-6 24v17l143 46c78 25 154 48 170 52l27 6v58l-24 11-24 11-153-37c-85-20-173-45-196-55l-41-18-12-22-12-22 11-26c5-15 17-101 26-191l16-164 17-23 17-23 26-1h27l101 40c56 22 143 50 193 63l91 22 10 22 10 23 24-39 23-39 47-31c25-17 55-31 65-31h18v-21l10 6 10 6v-26l8 11c4 6 23 15 42 19 84 18 156 78 181 152l13 38 1 62v61l-24 26c-28 30-47 33-72 10l-18-16 5-77 5-76-21-33-20-33-36-15-36-15-32 7c-39 8-74 39-92 81l-14 32v106l21 45c20 45 60 94 89 110l15 8v-246l19-21 19-21h35l5 23c3 12 2 99-2 192l-6 170-35 3-35 3-45-29zm-510-297c-33-19-50-18-26 0 11 8 27 15 35 15l16-1-25-14zm-45-255c-3-5-12-10-18-10h-12l15 10c19 12 23 12 15 0zm80 549c-59-14-197-60-192-65 2-2 21 2 43 10 21 7 83 23 137 35 53 13 97 25 97 27 0 6-41 3-85-7zm570-584c4-11 8-25 8-32v-12l9 5 8 5v-10c0-28-40-14-53 19l-5 15-1-17c-1-9-6-20-11-23l-11-7-14 12-15 12v-15c0-9-5-19-11-23l-11-7-8 14c-5 7-15 14-23 15l-14 2v-28l14 11 13 11v-11c0-17-4-26-12-24-3 1-5-5-4-15 2-9-4-27-12-39l-14-23h23l-9-17-10-17 21-43c12-24 25-43 29-43h8l2-62 1-63 7 50 7 50 3-160 4-160 3 50 4 51 33-4 32-4 12 15 13 15-16 16c-9 9-23 16-31 16s-14 5-14 10v10h51l-6 10c-9 14-48 12-64-3l-13-12 5 73c2 40 7 76 11 80l7 6 9-14 10-15v17c0 9 4 19 8 22l9 5 20-19c12-10 24-16 27-13 3 4 6 0 6-7v-13l19 22 20 22 4-28 4-28 2 47 1 47 15-5 15-6v40l15 12 15 13-5 18-6 17 11 7 10 6-5 10-6 9h10c6 0 11 5 11 11v11l-15-12-15-12v33l-10-6-10-6v10c0 5 4 13 10 16l10 6-12 13-12 13-18-5-18-4v26l-12-12c-7-7-17-12-22-12l-11 1 19 14 19 15 14-12 14-11 15 15 15 14-49-2-49-2-17 27-18 26 7-20zm145-149c0-2-7-7-16-10l-15-6 6 10c6 10 25 14 25 6zm-160-362c0-2-13-4-30-4h-30v38l30-14c17-9 30-17 30-20zm-45 486-6-10h10c6 0 11 5 11 10 0 6-2 10-4 10-3 0-8-4-11-10zm-124-106 1-19 5 13c3 7 2 16-1 19-3 4-6-2-5-13zm280-190 1-19 5 13c3 7 2 16-1 19-3 4-6-2-5-13zm-59-49v-30l5 18c2 9 2 23 0 30l-5 12v-30zM740 580v-50h10c6 0 10 4 10 9s13 12 30 16l29 6 6 20 7 20-12 14-12 15h-68v-50zm60 15v-15h-40v30h40v-15zm80-15v-50h9c5 0 11 6 14 13l4 12 22-12c28-17 34-16 27 3l-6 17 11 13 10 13-11 20-11 21h-69v-50zm58 13 4-13h-42v31l17-3c9-2 18-9 21-15zm72-13v-50h30v100h-30v-50zm86 13c9-21 18-44 21-50 3-7 12-13 19-13h15l19 46c23 53 23 54 10 54-5 0-17-15-26-32l-17-33-15 33-16 32h-26l16-37zm147-13-21-50h14c8 0 14 5 14 10v10h23c13 0 28-5 35-12 22-22 24 0 3 46l-20 46h-27l-21-50zm47-1c0-5-4-9-10-9-5 0-10 7-10 16v15l10-6c6-3 10-10 10-16zm95 31-19-21 10-27 9-27h75l-2 9-3 10h-25l-25 1v50l28-2 28-2-4 12-4 12-24 3-25 3-19-21zm135-12c11-18 20-41 20-50v-18h30v23c0 12 7 33 16 45l16 23-7 7-6 7-18-24-19-24-11 21-12 22h-29l20-32zm200-18v-50h20v40h50v20h-50v20h60v20h-80v-50zm120 0v-50h30v100h-30v-50zm80 0v-50h9c5 0 11 6 14 13l4 12 22-12c11-7 26-13 33-13h12l-11 11-11 11 10 24 11 23-13 16-12 15h-68v-50zm60 15v-15h-40v30h40v-15zm190 25c0-5 7-10 15-10h15v-80h30v80h15c8 0 15 5 15 10v10h-90v-10z"/></g><g fill="#4d4d4d" transform="matrix(.1 0 0 -.1 0 300)"><path d="M1816 2823c-79-85-132-155-172-228l-36-65-10 6c-5 4-48 58-94 121l-85 114-32 19c-38 24-48 22-64-11l-12-25-7-100c-3-56-7-125-9-155-1-30-3-56-4-58 0-3-16 9-33 26-40 37-137 103-198 133-25 12-53 31-63 42l-19 19-25-3-26-3-14-22-15-22 28-27 27-28 23-57c20-49 83-295 100-394l6-30 20-22 20-22 50-11 50-12 146 6c81 3 161 8 179 12l32 6 4-48 3-49 2 53 2 52h48l5-12 5-13 1 16 1 17 26 6 26 7 14-18 13-18 1 25 1 25 9-20 9-20v16l1 17 23 15 22 16h-15c-8 1-40-5-72-13l-56-13-6 30c-3 16-6 49-6 73v44l38-1c20 0 60-4 88-8l52-7 16-17c21-21 40-22 56-2l12 15-7 32c-3 18-10 78-15 133l-9 100 6 167 6 167 14 5 13 5v24c0 23-16 47-32 47-5 0-32-26-62-57zm6-330-4-252-51 7c-68 9-252 9-349 0l-78-8v27l98 17 97 18 100-4c55-2 109-8 120-12l20-8-19 13c-10 6-42 18-70 26l-51 14-144-3-144-2-66-16c-37-10-77-22-89-29l-23-12 3-17 4-17 37 1 37 1v-26l-47-21-47-20-8 12c-4 7-8 19-8 26 0 18-89 281-107 315-8 16-12 31-10 34 13 12 205-106 258-160l29-28 17 3 18 3 7 80c3 44 12 118 20 165l13 85 6-55 6-55 2 50 2 50 14-19 15-20 2-45 1-46 4 39 4 39 26-29c14-16 49-61 79-100 56-74 72-87 93-75 12 8 51 79 51 94 0 5 10 26 23 46l22 36 6-110 5-110 2 128 2 128 37 49c20 27 37 48 38 47 0-1-1-115-3-254zm-502-248c0-8-4-15-10-15-5 0-10 7-10 15s5 15 10 15c6 0 10-7 10-15zm-30-16c0-5-4-9-10-9-5 0-10 7-10 16v15l10-6c6-3 10-10 10-16zm340-82v-74l-107-11c-116-13-273-14-313-3l-25 7v29l75 37c97 49 225 81 343 87l27 1v-73zm12-162v-30l5 18c2 9 2 23 0 30l-5 12v-30zm-557-297c-82-5-177-12-210-16l-60-7-3-29-4-28 33-34 33-34h42c23 0 55-3 72-6l30-6-2-193-1-193 19-21c11-11 25-21 33-21h13l19 31 19 31 5-18c3-11 5 76 6 192l1 212 57 7c31 4 67 11 79 15l23 9 16 35 17 36-6 25-6 25-38-1c-20-1-104-6-187-11zm-184-126-23-4-9 9-10 10 33-6 33-5-24-4zm1502 112c-3-8-4-63-1-122l4-107-7 25c-4 14-8 45-9 70s-5 56-10 70l-8 25 6-93 5-93-27-28-28-29 4-19 3-18 21-3 21-3 7-61c3-34 6-76 6-95v-34l16-24 16-25h46l13 16 13 15 4 110 5 109h115l7-130 7-129 14-12 13-11 19 6 19 6 11 25 11 24 7 106 7 105 17 5 18 6 12 29 12 29-7 20-6 20-18 6-18 5-6 85-6 84-11 21-11 20h-67l-12-15-13-15 6-86 5-85-12-4c-6-2-34-6-62-9l-52-5-7 92-7 92-21 23-20 22h-38l-6-16zm190-291c-18-2-48-2-65 0l-33 4h130l-32-4zm-558 271c-59-40-123-103-152-153l-26-43-5-74-5-73-20 25-20 26-36-5c-20-2-97-27-171-55s-135-50-136-49-4 15-6 31l-3 28 80 33 80 33 80 17c43 9 85 21 92 27 19 15 16 42-8 72l-20 26h-27c-35 0-139-30-221-64-36-14-66-26-68-26s-3 11-3 24v25l53 19c29 11 103 35 163 52s113 35 118 40l9 9-7 25-6 25-19 6-19 6-158-39c-88-22-176-46-197-55l-37-16-9-23-8-23 8-23c7-18 39-295 39-337 0-6 10-24 23-38l23-27h49l-13 9-14 8 32 12c18 6 36 8 41 6 4-3 52 10 106 28 54 19 124 40 156 47l58 13 14 20 14 20-5 11c-3 6 1 2 8-8 50-75 130-136 178-136h20v-20l23 9c12 5 41 14 65 20l42 12 34 29 33 30 22 51 22 50 1 58 1 57-12 22c-6 12-21 26-32 32l-20 11-24-15-23-15 5-74 6-73-17-32-17-33-32-19c-38-24-66-25-112-6l-34 14-19 39c-11 21-22 54-26 74l-6 36 20 66 20 66 46 45c25 25 50 46 56 46h10l-9-42c-4-24-7-80-7-125l1-83 17-25 16-25h40v179c0 99-3 186-6 195l-6 16h-63l-40-26zm-430-262c-9-8-61-30-115-50l-15-5 13 14c6 7 36 21 65 30 65 21 63 21 52 11zm529-81c-2-3-12 3-22 13l-17 18 22-13c12-7 20-15 17-18zm-607 328c-43-10-86-24-95-30l-17-11 20 7c11 3 59 15 108 27 48 11 87 22 87 24 0 7-22 3-103-17zm-47-539-15-10h10c6 0 17 5 25 10l15 10h-10c-5 0-17-5-25-10zm530-118c-19-19-29-31-22-28l12 7v-9c0-6-6-12-14-15l-14-6 2-43c3-48 23-108 37-108h9l2-57 1-58 7 45 7 45 3-65 3-65 7 63 7 63 12 12 11 11 1-19 1-20 7 24c4 14 13 27 20 29l14 5-7-11-7-11 20-10c11-6 26-11 33-11h14l21 41c11 22 24 41 29 42s8 5 7 9c-2 5 2 7 8 5l11-2 4 20c1 10-2 25-7 31l-10 12 10 6 10 7-11 25-12 25 15 10 14 10-30-7-30-6 19 14 18 14-41-2-41-2v18l-27-17-27-18 6 15 6 16h-73l-35-34zM740 580v-50h9c5 0 11 7 15 15l5 15h19c18 0 42 18 42 31 0 4-7 15-16 23l-15 16h-59v-50zm64 21 6-9-15-12-14-12-11 7c-5 3-10 13-10 21v14h19c11 0 22-4 25-9zm76-21v-50h10c6 0 10 7 10 15s4 15 9 15 14-7 21-15c19-23 25-18 27 27l3 42-13 8c-6 4-24 8-39 8h-28v-50zm58 13-3-18h-30l-3 18-3 17h42l-3-17zm82-13v-50h20v100h-20v-50zm83 0 21-50h12c6 0 14 6 17 13 3 6 12 29 21 50l16 37h-10c-5 0-17-17-26-37l-17-38-15 38-15 37h-25l21-50zm146 4-21-46 8-6 7-7 4 13 5 12h56l5-12c2-7 7-10 11-7l6 6-20 46c-12 26-25 47-31 47s-19-21-30-46zm41-5c0-5-7-9-15-9h-14l5 15 6 15 9-6c5-3 9-9 9-15zm103 36-23-16v-18c0-36 68-69 85-41l6 10h-59l-6 16-6 17 12 14 12 15 23-5 24-4-4 11c-2 6-12 12-23 14l-19 3-22-16zm117 7c0-5 7-17 15-28 8-10 15-29 15-41v-23h10c6 0 10 6 10 14s9 31 21 50l21 36h-11c-6 0-16-10-22-22l-12-22-17 22c-19 23-30 28-30 14zm210-42v-50h20v40h50v20h-50v20h50v20h-70v-50zm120 0v-50h20v100h-20v-50zm80 0c0-54 5-60 26-32l14 17 11-17c5-10 15-18 20-18h10l-6 19-6 19 11 7c14 9 13 21-6 39l-15 16h-59v-50zm64 21 6-9-15-12-14-12-11 7c-5 3-10 13-10 21v14h19c11 0 22-4 25-9zm74 15-18-13 1-49v-49l7 15 7 15h70l3 21 3 22-25 6c-15 3-26 11-26 16v10h51l-6 10c-9 14-47 12-67-4zm52-58c0-4-13-8-30-8h-30v38l30-11c17-6 30-15 30-19zm60 62v-10h40v-80h20v80h15c8 0 15 5 15 10v10h-90v-10zm-128-150v-35l5 18c2 9 2 25 0 35l-5 17v-35z"/></g><g fill="#040404" transform="matrix(.1 0 0 -.1 0 300)"><path d="M1853 2864c-7-3-13-10-13-16 0-5-19-28-41-51-60-61-122-144-159-212-18-33-33-61-35-63-1-1-35 41-75 95s-91 117-114 141l-40 42h-45l-10-37c-6-21-13-101-17-178-3-77-8-142-10-144s-25 15-52 37c-51 43-190 132-205 132-5 0-22 11-39 25-46 39-88 28-88-22v-23l24-15 24-16 20-57c21-58 57-185 66-234 2-15 7-32 10-36 3-5 8-24 10-43 8-51 22-102 34-125l11-21 30-13 31-12 202 6c112 3 219 7 238 8l35 3 13 13c7 6 22 12 32 12s25 3 33 6l15 5 5-18 5-18 1 19c0 10 9 24 18 31l18 13-55-10c-30-6-62-11-70-12l-15-1-3 74-3 73 85-3 84-4 27-25 26-24 17 11 17 11-1 23c-1 13-7 51-14 84l-12 60 4 217 3 216 18 20 19 21-4 18-3 18-20 2c-11 1-26-1-32-3zm-27-231c-3-65-5-180-5-257l-1-139-42 7c-24 4-81 9-128 12l-85 6-112-15-113-14v19c0 10 2 18 4 18s40 7 83 15l78 15 110 1 110 1-50 14-50 15-145-5-145-4-69-20c-37-11-75-27-83-35l-15-15 7-12 7-12 22 5c11 3 36 8 54 12l32 7v-27l-68-31-67-31-56 166c-30 91-63 181-72 199l-18 32h12c38 0 270-151 282-183l4-12 19 11 19 11 2 49c2 50 20 196 30 247l5 29 45-49c25-26 57-64 72-83 14-19 28-37 31-40 4-3 19-23 35-45 35-47 44-55 66-55h15l39 85c21 47 42 85 46 85 5 0 9 6 9 14 0 13 79 126 87 126 3 0 2-53-1-117zm-496-377c0-2-3-11-6-20-9-23-24-20-24 4v20h15c8 0 15-2 15-4zm300-110v-74l-67-9c-81-10-369-11-378-1l-7 6 6 20 7 20 57 25c116 52 239 84 330 86l52 1v-74zm100 150c0-2 7-7 16-10l15-6-6 10c-6 10-25 14-25 6zm-147-321v-40l4 23c2 12 2 30 0 40l-5 17 1-40zm58 9 1-19 5 13c3 7 2 16-1 19-3 4-6-2-5-13zm-451-294c-36-4-108-8-160-9l-95-1 14-9 15-9-62 5-62 6-15-13c-8-7-15-21-15-31v-18l34-35 33-36h144l-3-192-3-193 13-23 13-23 26 3 26 3 12 35 12 35 5-25c3-14 6 68 7 181l1 207 67 12c37 6 75 16 85 21l18 10v17c0 10 5 23 11 29l10 10-7 27-6 26-27-2c-14 0-55-4-91-8zm-250-131 15-8h-60l-25 15-25 15 40-6c22-4 47-11 55-16zm1472 119-11-11 6-116 6-116-11 10-11 10-4 55-3 55-2-64-2-63-26-20-25-20 3-22 3-21 28-3 27-3v-97l1-97 19-24 20-23 24 6 24 6 7 17c3 10 9 67 12 126l6 108 61-3 61-3 5-130 5-130 8-12c12-19 31-16 52 7l18 19 7 111 7 110 27 25 26 24v61l-25 10-25 10v166l-16 22-15 22h-21c-12 0-30-7-40-16l-18-17 7-87 6-88-62-7c-34-4-65-5-67-2-3 3-8 40-11 84l-6 78-19 33c-21 34-36 40-56 20zm181-295c-18-2-48-2-65 0l-33 4h130l-32-4zm-572 256-61-41-36-43-35-44-20-51-19-50v-58l-1-57-15 27-15 28-22 5-22 6-103-36c-56-19-127-46-157-59l-54-24-7 31-6 31 15 11c8 6 16 19 18 29l4 18 60 19c33 10 65 17 70 15l10-4-25-11-25-12 25 7c14 3 61 14 104 23l80 18 10 16 10 16-14 26-15 27-21 8-22 9-67-16c-37-8-99-28-138-44-38-16-74-29-78-29h-9v49l18 10c10 5 85 30 166 55 81 24 150 47 153 49 3 3 2 15-2 27l-7 21-21 8-21 8-95-24c-53-13-131-34-174-45l-78-21-26-20-25-20 6-31c11-59 36-281 36-319v-38l22-29c12-17 28-30 35-30h14l-5 9-6 9 47 16c54 19 56 19 49 7-3-5 29 4 72 20 42 16 109 36 147 45 39 10 78 21 88 26l17 9v74l24-50 23-51 33-27c18-15 48-34 67-42l35-15h93l51 24 51 24 23 32c29 40 50 111 50 167v44l-15 29-16 30h-58l-10-19-10-18 10-38 11-38-7-34c-3-19-11-46-17-59l-11-24-32-20-32-20h-80l-28 22-28 21-18 41-19 41v74l21 57 21 56 42 44c24 24 48 44 54 44h11l-2-136-2-135 19-15c23-16 46-18 46-4 0 6-7 10-16 10s-23 8-30 18c-22 28-16 37 9 14 13-12 26-22 30-22h7v321l-10 20-11 19h-47l-61-41zm-481-279-15-10h10c6 0 17 5 25 10l15 10h-10c-5 0-17-5-25-10zm530-369c0-5-8-8-17-8-10 0-26-1-35-2l-18-1v-50h-19l4-22c2-13 6-44 10-70l6-48 19-13 18-12 4-25 5-25 12 33 13 32h28v24l20-22 21-22h35l17 36 17 35 10-6 10-6v15c0 9 5 16 10 16h10v18c0 10-5 23-11 29l-12 12 11 41 10 41-13-11-12-10-13 15-12 15h-50l-5-20c-6-23-18-26-30-7-4 8-16 16-25 20l-18 6v-8zM740 580v-50h10c6 0 10 6 10 14v15l27 3 28 3 4 19 3 20-18 13c-10 7-28 13-41 13h-23v-50zm65 10v-15l-22-3-23-3v42l23-3 22-3v-15zm75-10v-50h10c6 0 10 7 10 15v15h14c8 0 16-7 20-15 3-8 11-15 17-15h11l-11 14-12 14 11 7c5 3 10 15 10 25v19l-19 11c-11 5-29 10-40 10h-21v-50zm63 24c3-3 3-12 0-20l-5-14h-38v40h18c10 0 21-3 25-6zm80-24v-55l4 28c2 15 2 39 0 55l-4 27v-55zm67 46c0-14 41-96 48-96 4 0 18 23 29 50l21 50h-8c-5 0-14-16-21-35-16-43-23-44-39-5-11 27-30 50-30 36zm160-43c-21-48-21-64 0-38 7 8 21 15 32 15h19l5-15c4-8 10-15 15-15h8l-21 50c-11 28-24 50-29 50-4 0-17-21-29-47zm35-11c-22-5-27 1-19 23l7 18 14-19 14-19-16-3zm119 48c-12-4-24-16-28-25l-6-16 10-19c5-10 19-21 30-25l20-6 17 11 18 11-22-4-22-5-17 12-16 12 4 20 3 19 35 5 35 5-18 8c-10 4-19 7-20 6-1 0-11-4-23-9zm121-17c8-18 15-41 15-53v-20h20v18c0 9 9 32 20 50 11 17 16 32 11 32-4 0-13-12-20-27l-12-27-25 30-25 29 16-32zm195-23v-50h20v39l23 4 22 4-22 2-23 1v30h50v20h-70v-50zm133 0v-55l4 28c2 15 2 39 0 55l-4 27v-55zm78-2 1-53 5 18 4 17h15c8 0 17-7 20-15 11-27 19-16 22 29l2 44-22 6c-13 3-29 6-35 6h-13l1-52zm54 12v-15l-22-3-23-3v42l23-3 22-3v-15zm88 33-13-5v-36l25-6 25-6v-32l-27 7-28 6 12-12 12-12 25 7 26 6v31l-30 10c-16 6-30 15-30 20v9h51l-6 10c-7 11-22 12-42 3zm107-3c0-5 6-10 14-10h15l4-42 4-43 1 43 2 42h40v20h-80v-10z"/></g></g></svg>
